%TF.GenerationSoftware,KiCad,Pcbnew,9.0.2*%
%TF.CreationDate,2025-07-03T17:25:43-07:00*%
%TF.ProjectId,new_proj,6e65775f-7072-46f6-9a2e-6b696361645f,rev?*%
%TF.SameCoordinates,Original*%
%TF.FileFunction,Copper,L1,Top*%
%TF.FilePolarity,Positive*%
%FSLAX46Y46*%
G04 Gerber Fmt 4.6, Leading zero omitted, Abs format (unit mm)*
G04 Created by KiCad (PCBNEW 9.0.2) date 2025-07-03 17:25:43*
%MOMM*%
%LPD*%
G01*
G04 APERTURE LIST*
G04 Aperture macros list*
%AMRoundRect*
0 Rectangle with rounded corners*
0 $1 Rounding radius*
0 $2 $3 $4 $5 $6 $7 $8 $9 X,Y pos of 4 corners*
0 Add a 4 corners polygon primitive as box body*
4,1,4,$2,$3,$4,$5,$6,$7,$8,$9,$2,$3,0*
0 Add four circle primitives for the rounded corners*
1,1,$1+$1,$2,$3*
1,1,$1+$1,$4,$5*
1,1,$1+$1,$6,$7*
1,1,$1+$1,$8,$9*
0 Add four rect primitives between the rounded corners*
20,1,$1+$1,$2,$3,$4,$5,0*
20,1,$1+$1,$4,$5,$6,$7,0*
20,1,$1+$1,$6,$7,$8,$9,0*
20,1,$1+$1,$8,$9,$2,$3,0*%
G04 Aperture macros list end*
%TA.AperFunction,ComponentPad*%
%ADD10C,2.200000*%
%TD*%
%TA.AperFunction,SMDPad,CuDef*%
%ADD11R,1.600000X0.850000*%
%TD*%
%TA.AperFunction,SMDPad,CuDef*%
%ADD12RoundRect,0.152400X1.063600X0.609600X-1.063600X0.609600X-1.063600X-0.609600X1.063600X-0.609600X0*%
%TD*%
%TA.AperFunction,ComponentPad*%
%ADD13C,1.524000*%
%TD*%
%TA.AperFunction,SMDPad,CuDef*%
%ADD14RoundRect,0.152400X-1.063600X-0.609600X1.063600X-0.609600X1.063600X0.609600X-1.063600X0.609600X0*%
%TD*%
%TA.AperFunction,Conductor*%
%ADD15C,0.200000*%
%TD*%
G04 APERTURE END LIST*
D10*
%TO.P,SW1,1,1*%
%TO.N,GND*%
X96440000Y-58320000D03*
%TO.P,SW1,2,2*%
%TO.N,Net-(U1-GPIO1{slash}RX)*%
X90090000Y-60860000D03*
%TD*%
D11*
%TO.P,D1,1,DOUT*%
%TO.N,unconnected-(D1-DOUT-Pad1)*%
X91050000Y-41125000D03*
%TO.P,D1,2,VSS*%
%TO.N,GND*%
X91050000Y-42875000D03*
%TO.P,D1,3,DIN*%
%TO.N,Net-(D1-DIN)*%
X94550000Y-42875000D03*
%TO.P,D1,4,VDD*%
%TO.N,+5V*%
X94550000Y-41125000D03*
%TD*%
%TO.P,D2,1,DOUT*%
%TO.N,Net-(D1-DIN)*%
X55450000Y-41225000D03*
%TO.P,D2,2,VSS*%
%TO.N,GND*%
X55450000Y-42975000D03*
%TO.P,D2,3,DIN*%
%TO.N,Net-(D2-DIN)*%
X58950000Y-42975000D03*
%TO.P,D2,4,VDD*%
%TO.N,+5V*%
X58950000Y-41225000D03*
%TD*%
D10*
%TO.P,SW5,1,1*%
%TO.N,GND*%
X58340000Y-77370000D03*
%TO.P,SW5,2,2*%
%TO.N,Net-(U1-GPIO29{slash}ADC3{slash}A3)*%
X51990000Y-79910000D03*
%TD*%
%TO.P,SW4,1,1*%
%TO.N,GND*%
X96440000Y-77370000D03*
%TO.P,SW4,2,2*%
%TO.N,Net-(U1-GPIO3{slash}MOSI)*%
X90090000Y-79910000D03*
%TD*%
%TO.P,SW3,1,1*%
%TO.N,GND*%
X58340000Y-58320000D03*
%TO.P,SW3,2,2*%
%TO.N,Net-(U1-GPIO4{slash}MISO)*%
X51990000Y-60860000D03*
%TD*%
%TO.P,SW2,1,1*%
%TO.N,GND*%
X77390000Y-58320000D03*
%TO.P,SW2,2,2*%
%TO.N,Net-(U1-GPIO2{slash}SCK)*%
X71040000Y-60860000D03*
%TD*%
D12*
%TO.P,U1,1,GPIO26/ADC0/A0*%
%TO.N,unconnected-(U1-GPIO26{slash}ADC0{slash}A0-Pad1)*%
X66425000Y-32900000D03*
D13*
X67260000Y-32900000D03*
D12*
%TO.P,U1,2,GPIO27/ADC1/A1*%
%TO.N,unconnected-(U1-GPIO27{slash}ADC1{slash}A1-Pad2)*%
X66425000Y-35440000D03*
D13*
X67260000Y-35440000D03*
D12*
%TO.P,U1,3,GPIO28/ADC2/A2*%
%TO.N,unconnected-(U1-GPIO28{slash}ADC2{slash}A2-Pad3)*%
X66425000Y-37980000D03*
D13*
X67260000Y-37980000D03*
D12*
%TO.P,U1,4,GPIO29/ADC3/A3*%
%TO.N,Net-(U1-GPIO29{slash}ADC3{slash}A3)*%
X66425000Y-40520000D03*
D13*
X67260000Y-40520000D03*
D12*
%TO.P,U1,5,GPIO6/SDA*%
%TO.N,Net-(D2-DIN)*%
X66425000Y-43060000D03*
D13*
X67260000Y-43060000D03*
D12*
%TO.P,U1,6,GPIO7/SCL*%
%TO.N,unconnected-(U1-GPIO7{slash}SCL-Pad6)*%
X66425000Y-45600000D03*
D13*
X67260000Y-45600000D03*
D12*
%TO.P,U1,7,GPIO0/TX*%
%TO.N,unconnected-(U1-GPIO0{slash}TX-Pad7)*%
X66425000Y-48140000D03*
D13*
X67260000Y-48140000D03*
%TO.P,U1,8,GPIO1/RX*%
%TO.N,Net-(U1-GPIO1{slash}RX)*%
X82500000Y-48140000D03*
D14*
X83335000Y-48140000D03*
D13*
%TO.P,U1,9,GPIO2/SCK*%
%TO.N,Net-(U1-GPIO2{slash}SCK)*%
X82500000Y-45600000D03*
D14*
X83335000Y-45600000D03*
D13*
%TO.P,U1,10,GPIO4/MISO*%
%TO.N,Net-(U1-GPIO4{slash}MISO)*%
X82500000Y-43060000D03*
D14*
X83335000Y-43060000D03*
D13*
%TO.P,U1,11,GPIO3/MOSI*%
%TO.N,Net-(U1-GPIO3{slash}MOSI)*%
X82500000Y-40520000D03*
D14*
X83335000Y-40520000D03*
D13*
%TO.P,U1,12,3V3*%
%TO.N,unconnected-(U1-3V3-Pad12)*%
X82500000Y-37980000D03*
D14*
X83335000Y-37980000D03*
D13*
%TO.P,U1,13,GND*%
%TO.N,GND*%
X82500000Y-35440000D03*
D14*
X83335000Y-35440000D03*
D13*
%TO.P,U1,14,VBUS*%
%TO.N,+5V*%
X82500000Y-32900000D03*
D14*
X83335000Y-32900000D03*
%TD*%
D15*
%TO.N,GND*%
X77390000Y-58320000D02*
X58340000Y-58320000D01*
X58340000Y-58320000D02*
X58340000Y-77370000D01*
X91050000Y-42875000D02*
X91050000Y-49500000D01*
X96440000Y-58320000D02*
X96440000Y-77370000D01*
X91050000Y-49500000D02*
X96440000Y-54890000D01*
X86825000Y-42875000D02*
X91050000Y-42875000D01*
X55450000Y-49950000D02*
X58340000Y-52840000D01*
X82500000Y-35440000D02*
X85390000Y-35440000D01*
X86750000Y-42800000D02*
X86825000Y-42875000D01*
X85390000Y-35440000D02*
X86550000Y-36600000D01*
X55450000Y-42975000D02*
X55450000Y-49950000D01*
X96440000Y-58320000D02*
X77390000Y-58320000D01*
X86550000Y-42800000D02*
X86750000Y-42800000D01*
X58340000Y-52840000D02*
X58340000Y-58320000D01*
X96440000Y-54890000D02*
X96440000Y-58320000D01*
X86550000Y-36600000D02*
X86550000Y-42800000D01*
%TO.N,Net-(D1-DIN)*%
X89950000Y-30751000D02*
X97850000Y-38651000D01*
X96625000Y-42875000D02*
X94550000Y-42875000D01*
X55450000Y-35400000D02*
X55400000Y-35350000D01*
X97850000Y-38651000D02*
X97850000Y-41650000D01*
X97850000Y-41650000D02*
X96625000Y-42875000D01*
X55400000Y-35350000D02*
X59999000Y-30751000D01*
X59999000Y-30751000D02*
X89950000Y-30751000D01*
X55450000Y-41225000D02*
X55450000Y-35400000D01*
%TO.N,+5V*%
X83335000Y-32900000D02*
X86150000Y-32900000D01*
X86150000Y-32900000D02*
X94375000Y-41125000D01*
X61850000Y-31450000D02*
X81150000Y-31450000D01*
X58950000Y-41225000D02*
X58950000Y-34350000D01*
X94375000Y-41125000D02*
X94550000Y-41125000D01*
X81150000Y-31450000D02*
X81150000Y-31550000D01*
X58950000Y-34350000D02*
X61850000Y-31450000D01*
X81150000Y-31550000D02*
X82500000Y-32900000D01*
%TO.N,Net-(D2-DIN)*%
X58950000Y-42975000D02*
X66340000Y-42975000D01*
X66340000Y-42975000D02*
X66425000Y-43060000D01*
%TD*%
M02*
