%TF.GenerationSoftware,KiCad,Pcbnew,9.0.2*%
%TF.CreationDate,2025-07-03T17:25:43-07:00*%
%TF.ProjectId,new_proj,6e65775f-7072-46f6-9a2e-6b696361645f,rev?*%
%TF.SameCoordinates,Original*%
%TF.FileFunction,Legend,Top*%
%TF.FilePolarity,Positive*%
%FSLAX46Y46*%
G04 Gerber Fmt 4.6, Leading zero omitted, Abs format (unit mm)*
G04 Created by KiCad (PCBNEW 9.0.2) date 2025-07-03 17:25:43*
%MOMM*%
%LPD*%
G01*
G04 APERTURE LIST*
%ADD10C,0.100000*%
%ADD11C,0.150000*%
%ADD12C,0.101600*%
%ADD13C,0.120000*%
%ADD14C,0.127000*%
%ADD15C,0.504000*%
G04 APERTURE END LIST*
D10*
X70908646Y-36972419D02*
X71575312Y-37972419D01*
X71575312Y-36972419D02*
X70908646Y-37972419D01*
X71956265Y-37972419D02*
X71956265Y-36972419D01*
X72384836Y-37686704D02*
X72861026Y-37686704D01*
X72289598Y-37972419D02*
X72622931Y-36972419D01*
X72622931Y-36972419D02*
X72956264Y-37972419D01*
X73480074Y-36972419D02*
X73670550Y-36972419D01*
X73670550Y-36972419D02*
X73765788Y-37020038D01*
X73765788Y-37020038D02*
X73861026Y-37115276D01*
X73861026Y-37115276D02*
X73908645Y-37305752D01*
X73908645Y-37305752D02*
X73908645Y-37639085D01*
X73908645Y-37639085D02*
X73861026Y-37829561D01*
X73861026Y-37829561D02*
X73765788Y-37924800D01*
X73765788Y-37924800D02*
X73670550Y-37972419D01*
X73670550Y-37972419D02*
X73480074Y-37972419D01*
X73480074Y-37972419D02*
X73384836Y-37924800D01*
X73384836Y-37924800D02*
X73289598Y-37829561D01*
X73289598Y-37829561D02*
X73241979Y-37639085D01*
X73241979Y-37639085D02*
X73241979Y-37305752D01*
X73241979Y-37305752D02*
X73289598Y-37115276D01*
X73289598Y-37115276D02*
X73384836Y-37020038D01*
X73384836Y-37020038D02*
X73480074Y-36972419D01*
X75099122Y-37972419D02*
X75099122Y-36972419D01*
X75099122Y-37448609D02*
X75670550Y-37448609D01*
X75670550Y-37972419D02*
X75670550Y-36972419D01*
X76146741Y-37448609D02*
X76480074Y-37448609D01*
X76622931Y-37972419D02*
X76146741Y-37972419D01*
X76146741Y-37972419D02*
X76146741Y-36972419D01*
X76146741Y-36972419D02*
X76622931Y-36972419D01*
X77622931Y-37972419D02*
X77289598Y-37496228D01*
X77051503Y-37972419D02*
X77051503Y-36972419D01*
X77051503Y-36972419D02*
X77432455Y-36972419D01*
X77432455Y-36972419D02*
X77527693Y-37020038D01*
X77527693Y-37020038D02*
X77575312Y-37067657D01*
X77575312Y-37067657D02*
X77622931Y-37162895D01*
X77622931Y-37162895D02*
X77622931Y-37305752D01*
X77622931Y-37305752D02*
X77575312Y-37400990D01*
X77575312Y-37400990D02*
X77527693Y-37448609D01*
X77527693Y-37448609D02*
X77432455Y-37496228D01*
X77432455Y-37496228D02*
X77051503Y-37496228D01*
X78051503Y-37448609D02*
X78384836Y-37448609D01*
X78527693Y-37972419D02*
X78051503Y-37972419D01*
X78051503Y-37972419D02*
X78051503Y-36972419D01*
X78051503Y-36972419D02*
X78527693Y-36972419D01*
X78956265Y-37877180D02*
X79003884Y-37924800D01*
X79003884Y-37924800D02*
X78956265Y-37972419D01*
X78956265Y-37972419D02*
X78908646Y-37924800D01*
X78908646Y-37924800D02*
X78956265Y-37877180D01*
X78956265Y-37877180D02*
X78956265Y-37972419D01*
X78956265Y-37591466D02*
X78908646Y-37020038D01*
X78908646Y-37020038D02*
X78956265Y-36972419D01*
X78956265Y-36972419D02*
X79003884Y-37020038D01*
X79003884Y-37020038D02*
X78956265Y-37591466D01*
X78956265Y-37591466D02*
X78956265Y-36972419D01*
X64203884Y-94122419D02*
X64203884Y-93122419D01*
X64203884Y-93122419D02*
X64775312Y-94122419D01*
X64775312Y-94122419D02*
X64775312Y-93122419D01*
X65680074Y-94122419D02*
X65680074Y-93598609D01*
X65680074Y-93598609D02*
X65632455Y-93503371D01*
X65632455Y-93503371D02*
X65537217Y-93455752D01*
X65537217Y-93455752D02*
X65346741Y-93455752D01*
X65346741Y-93455752D02*
X65251503Y-93503371D01*
X65680074Y-94074800D02*
X65584836Y-94122419D01*
X65584836Y-94122419D02*
X65346741Y-94122419D01*
X65346741Y-94122419D02*
X65251503Y-94074800D01*
X65251503Y-94074800D02*
X65203884Y-93979561D01*
X65203884Y-93979561D02*
X65203884Y-93884323D01*
X65203884Y-93884323D02*
X65251503Y-93789085D01*
X65251503Y-93789085D02*
X65346741Y-93741466D01*
X65346741Y-93741466D02*
X65584836Y-93741466D01*
X65584836Y-93741466D02*
X65680074Y-93693847D01*
X66013408Y-93455752D02*
X66394360Y-93455752D01*
X66156265Y-93122419D02*
X66156265Y-93979561D01*
X66156265Y-93979561D02*
X66203884Y-94074800D01*
X66203884Y-94074800D02*
X66299122Y-94122419D01*
X66299122Y-94122419D02*
X66394360Y-94122419D01*
X67156265Y-94122419D02*
X67156265Y-93598609D01*
X67156265Y-93598609D02*
X67108646Y-93503371D01*
X67108646Y-93503371D02*
X67013408Y-93455752D01*
X67013408Y-93455752D02*
X66822932Y-93455752D01*
X66822932Y-93455752D02*
X66727694Y-93503371D01*
X67156265Y-94074800D02*
X67061027Y-94122419D01*
X67061027Y-94122419D02*
X66822932Y-94122419D01*
X66822932Y-94122419D02*
X66727694Y-94074800D01*
X66727694Y-94074800D02*
X66680075Y-93979561D01*
X66680075Y-93979561D02*
X66680075Y-93884323D01*
X66680075Y-93884323D02*
X66727694Y-93789085D01*
X66727694Y-93789085D02*
X66822932Y-93741466D01*
X66822932Y-93741466D02*
X67061027Y-93741466D01*
X67061027Y-93741466D02*
X67156265Y-93693847D01*
X67584837Y-94074800D02*
X67680075Y-94122419D01*
X67680075Y-94122419D02*
X67870551Y-94122419D01*
X67870551Y-94122419D02*
X67965789Y-94074800D01*
X67965789Y-94074800D02*
X68013408Y-93979561D01*
X68013408Y-93979561D02*
X68013408Y-93931942D01*
X68013408Y-93931942D02*
X67965789Y-93836704D01*
X67965789Y-93836704D02*
X67870551Y-93789085D01*
X67870551Y-93789085D02*
X67727694Y-93789085D01*
X67727694Y-93789085D02*
X67632456Y-93741466D01*
X67632456Y-93741466D02*
X67584837Y-93646228D01*
X67584837Y-93646228D02*
X67584837Y-93598609D01*
X67584837Y-93598609D02*
X67632456Y-93503371D01*
X67632456Y-93503371D02*
X67727694Y-93455752D01*
X67727694Y-93455752D02*
X67870551Y-93455752D01*
X67870551Y-93455752D02*
X67965789Y-93503371D01*
X68441980Y-94122419D02*
X68441980Y-93122419D01*
X68870551Y-94122419D02*
X68870551Y-93598609D01*
X68870551Y-93598609D02*
X68822932Y-93503371D01*
X68822932Y-93503371D02*
X68727694Y-93455752D01*
X68727694Y-93455752D02*
X68584837Y-93455752D01*
X68584837Y-93455752D02*
X68489599Y-93503371D01*
X68489599Y-93503371D02*
X68441980Y-93550990D01*
X69775313Y-94122419D02*
X69775313Y-93598609D01*
X69775313Y-93598609D02*
X69727694Y-93503371D01*
X69727694Y-93503371D02*
X69632456Y-93455752D01*
X69632456Y-93455752D02*
X69441980Y-93455752D01*
X69441980Y-93455752D02*
X69346742Y-93503371D01*
X69775313Y-94074800D02*
X69680075Y-94122419D01*
X69680075Y-94122419D02*
X69441980Y-94122419D01*
X69441980Y-94122419D02*
X69346742Y-94074800D01*
X69346742Y-94074800D02*
X69299123Y-93979561D01*
X69299123Y-93979561D02*
X69299123Y-93884323D01*
X69299123Y-93884323D02*
X69346742Y-93789085D01*
X69346742Y-93789085D02*
X69441980Y-93741466D01*
X69441980Y-93741466D02*
X69680075Y-93741466D01*
X69680075Y-93741466D02*
X69775313Y-93693847D01*
X70299123Y-93122419D02*
X70203885Y-93312895D01*
X70680075Y-94074800D02*
X70775313Y-94122419D01*
X70775313Y-94122419D02*
X70965789Y-94122419D01*
X70965789Y-94122419D02*
X71061027Y-94074800D01*
X71061027Y-94074800D02*
X71108646Y-93979561D01*
X71108646Y-93979561D02*
X71108646Y-93931942D01*
X71108646Y-93931942D02*
X71061027Y-93836704D01*
X71061027Y-93836704D02*
X70965789Y-93789085D01*
X70965789Y-93789085D02*
X70822932Y-93789085D01*
X70822932Y-93789085D02*
X70727694Y-93741466D01*
X70727694Y-93741466D02*
X70680075Y-93646228D01*
X70680075Y-93646228D02*
X70680075Y-93598609D01*
X70680075Y-93598609D02*
X70727694Y-93503371D01*
X70727694Y-93503371D02*
X70822932Y-93455752D01*
X70822932Y-93455752D02*
X70965789Y-93455752D01*
X70965789Y-93455752D02*
X71061027Y-93503371D01*
X72251504Y-94074800D02*
X72394361Y-94122419D01*
X72394361Y-94122419D02*
X72632456Y-94122419D01*
X72632456Y-94122419D02*
X72727694Y-94074800D01*
X72727694Y-94074800D02*
X72775313Y-94027180D01*
X72775313Y-94027180D02*
X72822932Y-93931942D01*
X72822932Y-93931942D02*
X72822932Y-93836704D01*
X72822932Y-93836704D02*
X72775313Y-93741466D01*
X72775313Y-93741466D02*
X72727694Y-93693847D01*
X72727694Y-93693847D02*
X72632456Y-93646228D01*
X72632456Y-93646228D02*
X72441980Y-93598609D01*
X72441980Y-93598609D02*
X72346742Y-93550990D01*
X72346742Y-93550990D02*
X72299123Y-93503371D01*
X72299123Y-93503371D02*
X72251504Y-93408133D01*
X72251504Y-93408133D02*
X72251504Y-93312895D01*
X72251504Y-93312895D02*
X72299123Y-93217657D01*
X72299123Y-93217657D02*
X72346742Y-93170038D01*
X72346742Y-93170038D02*
X72441980Y-93122419D01*
X72441980Y-93122419D02*
X72680075Y-93122419D01*
X72680075Y-93122419D02*
X72822932Y-93170038D01*
X73632456Y-94074800D02*
X73537218Y-94122419D01*
X73537218Y-94122419D02*
X73346742Y-94122419D01*
X73346742Y-94122419D02*
X73251504Y-94074800D01*
X73251504Y-94074800D02*
X73203885Y-93979561D01*
X73203885Y-93979561D02*
X73203885Y-93598609D01*
X73203885Y-93598609D02*
X73251504Y-93503371D01*
X73251504Y-93503371D02*
X73346742Y-93455752D01*
X73346742Y-93455752D02*
X73537218Y-93455752D01*
X73537218Y-93455752D02*
X73632456Y-93503371D01*
X73632456Y-93503371D02*
X73680075Y-93598609D01*
X73680075Y-93598609D02*
X73680075Y-93693847D01*
X73680075Y-93693847D02*
X73203885Y-93789085D01*
X74108647Y-93455752D02*
X74108647Y-94122419D01*
X74108647Y-93550990D02*
X74156266Y-93503371D01*
X74156266Y-93503371D02*
X74251504Y-93455752D01*
X74251504Y-93455752D02*
X74394361Y-93455752D01*
X74394361Y-93455752D02*
X74489599Y-93503371D01*
X74489599Y-93503371D02*
X74537218Y-93598609D01*
X74537218Y-93598609D02*
X74537218Y-94122419D01*
X74965790Y-94074800D02*
X75061028Y-94122419D01*
X75061028Y-94122419D02*
X75251504Y-94122419D01*
X75251504Y-94122419D02*
X75346742Y-94074800D01*
X75346742Y-94074800D02*
X75394361Y-93979561D01*
X75394361Y-93979561D02*
X75394361Y-93931942D01*
X75394361Y-93931942D02*
X75346742Y-93836704D01*
X75346742Y-93836704D02*
X75251504Y-93789085D01*
X75251504Y-93789085D02*
X75108647Y-93789085D01*
X75108647Y-93789085D02*
X75013409Y-93741466D01*
X75013409Y-93741466D02*
X74965790Y-93646228D01*
X74965790Y-93646228D02*
X74965790Y-93598609D01*
X74965790Y-93598609D02*
X75013409Y-93503371D01*
X75013409Y-93503371D02*
X75108647Y-93455752D01*
X75108647Y-93455752D02*
X75251504Y-93455752D01*
X75251504Y-93455752D02*
X75346742Y-93503371D01*
X75965790Y-94122419D02*
X75870552Y-94074800D01*
X75870552Y-94074800D02*
X75822933Y-94027180D01*
X75822933Y-94027180D02*
X75775314Y-93931942D01*
X75775314Y-93931942D02*
X75775314Y-93646228D01*
X75775314Y-93646228D02*
X75822933Y-93550990D01*
X75822933Y-93550990D02*
X75870552Y-93503371D01*
X75870552Y-93503371D02*
X75965790Y-93455752D01*
X75965790Y-93455752D02*
X76108647Y-93455752D01*
X76108647Y-93455752D02*
X76203885Y-93503371D01*
X76203885Y-93503371D02*
X76251504Y-93550990D01*
X76251504Y-93550990D02*
X76299123Y-93646228D01*
X76299123Y-93646228D02*
X76299123Y-93931942D01*
X76299123Y-93931942D02*
X76251504Y-94027180D01*
X76251504Y-94027180D02*
X76203885Y-94074800D01*
X76203885Y-94074800D02*
X76108647Y-94122419D01*
X76108647Y-94122419D02*
X75965790Y-94122419D01*
X76727695Y-94122419D02*
X76727695Y-93455752D01*
X76727695Y-93646228D02*
X76775314Y-93550990D01*
X76775314Y-93550990D02*
X76822933Y-93503371D01*
X76822933Y-93503371D02*
X76918171Y-93455752D01*
X76918171Y-93455752D02*
X77013409Y-93455752D01*
X77251505Y-93455752D02*
X77489600Y-94122419D01*
X77727695Y-93455752D02*
X77489600Y-94122419D01*
X77489600Y-94122419D02*
X77394362Y-94360514D01*
X77394362Y-94360514D02*
X77346743Y-94408133D01*
X77346743Y-94408133D02*
X77251505Y-94455752D01*
X79203886Y-93598609D02*
X78870553Y-93598609D01*
X78870553Y-94122419D02*
X78870553Y-93122419D01*
X78870553Y-93122419D02*
X79346743Y-93122419D01*
X79727696Y-94122419D02*
X79727696Y-93455752D01*
X79727696Y-93122419D02*
X79680077Y-93170038D01*
X79680077Y-93170038D02*
X79727696Y-93217657D01*
X79727696Y-93217657D02*
X79775315Y-93170038D01*
X79775315Y-93170038D02*
X79727696Y-93122419D01*
X79727696Y-93122419D02*
X79727696Y-93217657D01*
X80632457Y-94122419D02*
X80632457Y-93122419D01*
X80632457Y-94074800D02*
X80537219Y-94122419D01*
X80537219Y-94122419D02*
X80346743Y-94122419D01*
X80346743Y-94122419D02*
X80251505Y-94074800D01*
X80251505Y-94074800D02*
X80203886Y-94027180D01*
X80203886Y-94027180D02*
X80156267Y-93931942D01*
X80156267Y-93931942D02*
X80156267Y-93646228D01*
X80156267Y-93646228D02*
X80203886Y-93550990D01*
X80203886Y-93550990D02*
X80251505Y-93503371D01*
X80251505Y-93503371D02*
X80346743Y-93455752D01*
X80346743Y-93455752D02*
X80537219Y-93455752D01*
X80537219Y-93455752D02*
X80632457Y-93503371D01*
X81537219Y-93455752D02*
X81537219Y-94265276D01*
X81537219Y-94265276D02*
X81489600Y-94360514D01*
X81489600Y-94360514D02*
X81441981Y-94408133D01*
X81441981Y-94408133D02*
X81346743Y-94455752D01*
X81346743Y-94455752D02*
X81203886Y-94455752D01*
X81203886Y-94455752D02*
X81108648Y-94408133D01*
X81537219Y-94074800D02*
X81441981Y-94122419D01*
X81441981Y-94122419D02*
X81251505Y-94122419D01*
X81251505Y-94122419D02*
X81156267Y-94074800D01*
X81156267Y-94074800D02*
X81108648Y-94027180D01*
X81108648Y-94027180D02*
X81061029Y-93931942D01*
X81061029Y-93931942D02*
X81061029Y-93646228D01*
X81061029Y-93646228D02*
X81108648Y-93550990D01*
X81108648Y-93550990D02*
X81156267Y-93503371D01*
X81156267Y-93503371D02*
X81251505Y-93455752D01*
X81251505Y-93455752D02*
X81441981Y-93455752D01*
X81441981Y-93455752D02*
X81537219Y-93503371D01*
X82394362Y-94074800D02*
X82299124Y-94122419D01*
X82299124Y-94122419D02*
X82108648Y-94122419D01*
X82108648Y-94122419D02*
X82013410Y-94074800D01*
X82013410Y-94074800D02*
X81965791Y-93979561D01*
X81965791Y-93979561D02*
X81965791Y-93598609D01*
X81965791Y-93598609D02*
X82013410Y-93503371D01*
X82013410Y-93503371D02*
X82108648Y-93455752D01*
X82108648Y-93455752D02*
X82299124Y-93455752D01*
X82299124Y-93455752D02*
X82394362Y-93503371D01*
X82394362Y-93503371D02*
X82441981Y-93598609D01*
X82441981Y-93598609D02*
X82441981Y-93693847D01*
X82441981Y-93693847D02*
X81965791Y-93789085D01*
X82727696Y-93455752D02*
X83108648Y-93455752D01*
X82870553Y-93122419D02*
X82870553Y-93979561D01*
X82870553Y-93979561D02*
X82918172Y-94074800D01*
X82918172Y-94074800D02*
X83013410Y-94122419D01*
X83013410Y-94122419D02*
X83108648Y-94122419D01*
X84108649Y-93455752D02*
X84346744Y-94122419D01*
X84346744Y-94122419D02*
X84584839Y-93455752D01*
X85489601Y-94122419D02*
X84918173Y-94122419D01*
X85203887Y-94122419D02*
X85203887Y-93122419D01*
X85203887Y-93122419D02*
X85108649Y-93265276D01*
X85108649Y-93265276D02*
X85013411Y-93360514D01*
X85013411Y-93360514D02*
X84918173Y-93408133D01*
D11*
X92566667Y-55933200D02*
X92709524Y-55980819D01*
X92709524Y-55980819D02*
X92947619Y-55980819D01*
X92947619Y-55980819D02*
X93042857Y-55933200D01*
X93042857Y-55933200D02*
X93090476Y-55885580D01*
X93090476Y-55885580D02*
X93138095Y-55790342D01*
X93138095Y-55790342D02*
X93138095Y-55695104D01*
X93138095Y-55695104D02*
X93090476Y-55599866D01*
X93090476Y-55599866D02*
X93042857Y-55552247D01*
X93042857Y-55552247D02*
X92947619Y-55504628D01*
X92947619Y-55504628D02*
X92757143Y-55457009D01*
X92757143Y-55457009D02*
X92661905Y-55409390D01*
X92661905Y-55409390D02*
X92614286Y-55361771D01*
X92614286Y-55361771D02*
X92566667Y-55266533D01*
X92566667Y-55266533D02*
X92566667Y-55171295D01*
X92566667Y-55171295D02*
X92614286Y-55076057D01*
X92614286Y-55076057D02*
X92661905Y-55028438D01*
X92661905Y-55028438D02*
X92757143Y-54980819D01*
X92757143Y-54980819D02*
X92995238Y-54980819D01*
X92995238Y-54980819D02*
X93138095Y-55028438D01*
X93471429Y-54980819D02*
X93709524Y-55980819D01*
X93709524Y-55980819D02*
X93900000Y-55266533D01*
X93900000Y-55266533D02*
X94090476Y-55980819D01*
X94090476Y-55980819D02*
X94328572Y-54980819D01*
X95233333Y-55980819D02*
X94661905Y-55980819D01*
X94947619Y-55980819D02*
X94947619Y-54980819D01*
X94947619Y-54980819D02*
X94852381Y-55123676D01*
X94852381Y-55123676D02*
X94757143Y-55218914D01*
X94757143Y-55218914D02*
X94661905Y-55266533D01*
X92061905Y-39704819D02*
X92061905Y-38704819D01*
X92061905Y-38704819D02*
X92300000Y-38704819D01*
X92300000Y-38704819D02*
X92442857Y-38752438D01*
X92442857Y-38752438D02*
X92538095Y-38847676D01*
X92538095Y-38847676D02*
X92585714Y-38942914D01*
X92585714Y-38942914D02*
X92633333Y-39133390D01*
X92633333Y-39133390D02*
X92633333Y-39276247D01*
X92633333Y-39276247D02*
X92585714Y-39466723D01*
X92585714Y-39466723D02*
X92538095Y-39561961D01*
X92538095Y-39561961D02*
X92442857Y-39657200D01*
X92442857Y-39657200D02*
X92300000Y-39704819D01*
X92300000Y-39704819D02*
X92061905Y-39704819D01*
X93585714Y-39704819D02*
X93014286Y-39704819D01*
X93300000Y-39704819D02*
X93300000Y-38704819D01*
X93300000Y-38704819D02*
X93204762Y-38847676D01*
X93204762Y-38847676D02*
X93109524Y-38942914D01*
X93109524Y-38942914D02*
X93014286Y-38990533D01*
X89828571Y-41487295D02*
X89371428Y-41487295D01*
X89600000Y-41487295D02*
X89600000Y-40687295D01*
X89600000Y-40687295D02*
X89523809Y-40801580D01*
X89523809Y-40801580D02*
X89447619Y-40877771D01*
X89447619Y-40877771D02*
X89371428Y-40915866D01*
X56461905Y-39804819D02*
X56461905Y-38804819D01*
X56461905Y-38804819D02*
X56700000Y-38804819D01*
X56700000Y-38804819D02*
X56842857Y-38852438D01*
X56842857Y-38852438D02*
X56938095Y-38947676D01*
X56938095Y-38947676D02*
X56985714Y-39042914D01*
X56985714Y-39042914D02*
X57033333Y-39233390D01*
X57033333Y-39233390D02*
X57033333Y-39376247D01*
X57033333Y-39376247D02*
X56985714Y-39566723D01*
X56985714Y-39566723D02*
X56938095Y-39661961D01*
X56938095Y-39661961D02*
X56842857Y-39757200D01*
X56842857Y-39757200D02*
X56700000Y-39804819D01*
X56700000Y-39804819D02*
X56461905Y-39804819D01*
X57414286Y-38900057D02*
X57461905Y-38852438D01*
X57461905Y-38852438D02*
X57557143Y-38804819D01*
X57557143Y-38804819D02*
X57795238Y-38804819D01*
X57795238Y-38804819D02*
X57890476Y-38852438D01*
X57890476Y-38852438D02*
X57938095Y-38900057D01*
X57938095Y-38900057D02*
X57985714Y-38995295D01*
X57985714Y-38995295D02*
X57985714Y-39090533D01*
X57985714Y-39090533D02*
X57938095Y-39233390D01*
X57938095Y-39233390D02*
X57366667Y-39804819D01*
X57366667Y-39804819D02*
X57985714Y-39804819D01*
X54228571Y-41587295D02*
X53771428Y-41587295D01*
X54000000Y-41587295D02*
X54000000Y-40787295D01*
X54000000Y-40787295D02*
X53923809Y-40901580D01*
X53923809Y-40901580D02*
X53847619Y-40977771D01*
X53847619Y-40977771D02*
X53771428Y-41015866D01*
X54466667Y-74983200D02*
X54609524Y-75030819D01*
X54609524Y-75030819D02*
X54847619Y-75030819D01*
X54847619Y-75030819D02*
X54942857Y-74983200D01*
X54942857Y-74983200D02*
X54990476Y-74935580D01*
X54990476Y-74935580D02*
X55038095Y-74840342D01*
X55038095Y-74840342D02*
X55038095Y-74745104D01*
X55038095Y-74745104D02*
X54990476Y-74649866D01*
X54990476Y-74649866D02*
X54942857Y-74602247D01*
X54942857Y-74602247D02*
X54847619Y-74554628D01*
X54847619Y-74554628D02*
X54657143Y-74507009D01*
X54657143Y-74507009D02*
X54561905Y-74459390D01*
X54561905Y-74459390D02*
X54514286Y-74411771D01*
X54514286Y-74411771D02*
X54466667Y-74316533D01*
X54466667Y-74316533D02*
X54466667Y-74221295D01*
X54466667Y-74221295D02*
X54514286Y-74126057D01*
X54514286Y-74126057D02*
X54561905Y-74078438D01*
X54561905Y-74078438D02*
X54657143Y-74030819D01*
X54657143Y-74030819D02*
X54895238Y-74030819D01*
X54895238Y-74030819D02*
X55038095Y-74078438D01*
X55371429Y-74030819D02*
X55609524Y-75030819D01*
X55609524Y-75030819D02*
X55800000Y-74316533D01*
X55800000Y-74316533D02*
X55990476Y-75030819D01*
X55990476Y-75030819D02*
X56228572Y-74030819D01*
X57085714Y-74030819D02*
X56609524Y-74030819D01*
X56609524Y-74030819D02*
X56561905Y-74507009D01*
X56561905Y-74507009D02*
X56609524Y-74459390D01*
X56609524Y-74459390D02*
X56704762Y-74411771D01*
X56704762Y-74411771D02*
X56942857Y-74411771D01*
X56942857Y-74411771D02*
X57038095Y-74459390D01*
X57038095Y-74459390D02*
X57085714Y-74507009D01*
X57085714Y-74507009D02*
X57133333Y-74602247D01*
X57133333Y-74602247D02*
X57133333Y-74840342D01*
X57133333Y-74840342D02*
X57085714Y-74935580D01*
X57085714Y-74935580D02*
X57038095Y-74983200D01*
X57038095Y-74983200D02*
X56942857Y-75030819D01*
X56942857Y-75030819D02*
X56704762Y-75030819D01*
X56704762Y-75030819D02*
X56609524Y-74983200D01*
X56609524Y-74983200D02*
X56561905Y-74935580D01*
X94865417Y-76503450D02*
X95008274Y-76551069D01*
X95008274Y-76551069D02*
X95246369Y-76551069D01*
X95246369Y-76551069D02*
X95341607Y-76503450D01*
X95341607Y-76503450D02*
X95389226Y-76455830D01*
X95389226Y-76455830D02*
X95436845Y-76360592D01*
X95436845Y-76360592D02*
X95436845Y-76265354D01*
X95436845Y-76265354D02*
X95389226Y-76170116D01*
X95389226Y-76170116D02*
X95341607Y-76122497D01*
X95341607Y-76122497D02*
X95246369Y-76074878D01*
X95246369Y-76074878D02*
X95055893Y-76027259D01*
X95055893Y-76027259D02*
X94960655Y-75979640D01*
X94960655Y-75979640D02*
X94913036Y-75932021D01*
X94913036Y-75932021D02*
X94865417Y-75836783D01*
X94865417Y-75836783D02*
X94865417Y-75741545D01*
X94865417Y-75741545D02*
X94913036Y-75646307D01*
X94913036Y-75646307D02*
X94960655Y-75598688D01*
X94960655Y-75598688D02*
X95055893Y-75551069D01*
X95055893Y-75551069D02*
X95293988Y-75551069D01*
X95293988Y-75551069D02*
X95436845Y-75598688D01*
X95770179Y-75551069D02*
X96008274Y-76551069D01*
X96008274Y-76551069D02*
X96198750Y-75836783D01*
X96198750Y-75836783D02*
X96389226Y-76551069D01*
X96389226Y-76551069D02*
X96627322Y-75551069D01*
X97436845Y-75884402D02*
X97436845Y-76551069D01*
X97198750Y-75503450D02*
X96960655Y-76217735D01*
X96960655Y-76217735D02*
X97579702Y-76217735D01*
X54466667Y-55933200D02*
X54609524Y-55980819D01*
X54609524Y-55980819D02*
X54847619Y-55980819D01*
X54847619Y-55980819D02*
X54942857Y-55933200D01*
X54942857Y-55933200D02*
X54990476Y-55885580D01*
X54990476Y-55885580D02*
X55038095Y-55790342D01*
X55038095Y-55790342D02*
X55038095Y-55695104D01*
X55038095Y-55695104D02*
X54990476Y-55599866D01*
X54990476Y-55599866D02*
X54942857Y-55552247D01*
X54942857Y-55552247D02*
X54847619Y-55504628D01*
X54847619Y-55504628D02*
X54657143Y-55457009D01*
X54657143Y-55457009D02*
X54561905Y-55409390D01*
X54561905Y-55409390D02*
X54514286Y-55361771D01*
X54514286Y-55361771D02*
X54466667Y-55266533D01*
X54466667Y-55266533D02*
X54466667Y-55171295D01*
X54466667Y-55171295D02*
X54514286Y-55076057D01*
X54514286Y-55076057D02*
X54561905Y-55028438D01*
X54561905Y-55028438D02*
X54657143Y-54980819D01*
X54657143Y-54980819D02*
X54895238Y-54980819D01*
X54895238Y-54980819D02*
X55038095Y-55028438D01*
X55371429Y-54980819D02*
X55609524Y-55980819D01*
X55609524Y-55980819D02*
X55800000Y-55266533D01*
X55800000Y-55266533D02*
X55990476Y-55980819D01*
X55990476Y-55980819D02*
X56228572Y-54980819D01*
X56514286Y-54980819D02*
X57133333Y-54980819D01*
X57133333Y-54980819D02*
X56800000Y-55361771D01*
X56800000Y-55361771D02*
X56942857Y-55361771D01*
X56942857Y-55361771D02*
X57038095Y-55409390D01*
X57038095Y-55409390D02*
X57085714Y-55457009D01*
X57085714Y-55457009D02*
X57133333Y-55552247D01*
X57133333Y-55552247D02*
X57133333Y-55790342D01*
X57133333Y-55790342D02*
X57085714Y-55885580D01*
X57085714Y-55885580D02*
X57038095Y-55933200D01*
X57038095Y-55933200D02*
X56942857Y-55980819D01*
X56942857Y-55980819D02*
X56657143Y-55980819D01*
X56657143Y-55980819D02*
X56561905Y-55933200D01*
X56561905Y-55933200D02*
X56514286Y-55885580D01*
X73516667Y-55933200D02*
X73659524Y-55980819D01*
X73659524Y-55980819D02*
X73897619Y-55980819D01*
X73897619Y-55980819D02*
X73992857Y-55933200D01*
X73992857Y-55933200D02*
X74040476Y-55885580D01*
X74040476Y-55885580D02*
X74088095Y-55790342D01*
X74088095Y-55790342D02*
X74088095Y-55695104D01*
X74088095Y-55695104D02*
X74040476Y-55599866D01*
X74040476Y-55599866D02*
X73992857Y-55552247D01*
X73992857Y-55552247D02*
X73897619Y-55504628D01*
X73897619Y-55504628D02*
X73707143Y-55457009D01*
X73707143Y-55457009D02*
X73611905Y-55409390D01*
X73611905Y-55409390D02*
X73564286Y-55361771D01*
X73564286Y-55361771D02*
X73516667Y-55266533D01*
X73516667Y-55266533D02*
X73516667Y-55171295D01*
X73516667Y-55171295D02*
X73564286Y-55076057D01*
X73564286Y-55076057D02*
X73611905Y-55028438D01*
X73611905Y-55028438D02*
X73707143Y-54980819D01*
X73707143Y-54980819D02*
X73945238Y-54980819D01*
X73945238Y-54980819D02*
X74088095Y-55028438D01*
X74421429Y-54980819D02*
X74659524Y-55980819D01*
X74659524Y-55980819D02*
X74850000Y-55266533D01*
X74850000Y-55266533D02*
X75040476Y-55980819D01*
X75040476Y-55980819D02*
X75278572Y-54980819D01*
X75611905Y-55076057D02*
X75659524Y-55028438D01*
X75659524Y-55028438D02*
X75754762Y-54980819D01*
X75754762Y-54980819D02*
X75992857Y-54980819D01*
X75992857Y-54980819D02*
X76088095Y-55028438D01*
X76088095Y-55028438D02*
X76135714Y-55076057D01*
X76135714Y-55076057D02*
X76183333Y-55171295D01*
X76183333Y-55171295D02*
X76183333Y-55266533D01*
X76183333Y-55266533D02*
X76135714Y-55409390D01*
X76135714Y-55409390D02*
X75564286Y-55980819D01*
X75564286Y-55980819D02*
X76183333Y-55980819D01*
D12*
X65896190Y-28173479D02*
X65896190Y-28687526D01*
X65896190Y-28687526D02*
X65926428Y-28748002D01*
X65926428Y-28748002D02*
X65956666Y-28778241D01*
X65956666Y-28778241D02*
X66017142Y-28808479D01*
X66017142Y-28808479D02*
X66138095Y-28808479D01*
X66138095Y-28808479D02*
X66198571Y-28778241D01*
X66198571Y-28778241D02*
X66228809Y-28748002D01*
X66228809Y-28748002D02*
X66259047Y-28687526D01*
X66259047Y-28687526D02*
X66259047Y-28173479D01*
X66894047Y-28808479D02*
X66531190Y-28808479D01*
X66712618Y-28808479D02*
X66712618Y-28173479D01*
X66712618Y-28173479D02*
X66652142Y-28264193D01*
X66652142Y-28264193D02*
X66591666Y-28324669D01*
X66591666Y-28324669D02*
X66531190Y-28354907D01*
D13*
%TO.C,SW1*%
X86915000Y-56415000D02*
X100885000Y-56415000D01*
X86915000Y-70385000D02*
X86915000Y-56415000D01*
X100885000Y-56415000D02*
X100885000Y-70385000D01*
X100885000Y-70385000D02*
X86915000Y-70385000D01*
%TO.C,D1*%
X90000000Y-40000000D02*
X90000000Y-44000000D01*
X90000000Y-40000000D02*
X95600000Y-40000000D01*
X90000000Y-44000000D02*
X95000000Y-44000000D01*
X95600000Y-43400000D02*
X95000000Y-44000000D01*
X95600000Y-43400000D02*
X95600000Y-40000000D01*
%TO.C,D2*%
X54400000Y-40100000D02*
X54400000Y-44100000D01*
X54400000Y-40100000D02*
X60000000Y-40100000D01*
X54400000Y-44100000D02*
X59400000Y-44100000D01*
X60000000Y-43500000D02*
X59400000Y-44100000D01*
X60000000Y-43500000D02*
X60000000Y-40100000D01*
%TO.C,SW5*%
X48815000Y-75465000D02*
X62785000Y-75465000D01*
X48815000Y-89435000D02*
X48815000Y-75465000D01*
X62785000Y-75465000D02*
X62785000Y-89435000D01*
X62785000Y-89435000D02*
X48815000Y-89435000D01*
%TO.C,SW4*%
X86915000Y-75465000D02*
X100885000Y-75465000D01*
X86915000Y-89435000D02*
X86915000Y-75465000D01*
X100885000Y-75465000D02*
X100885000Y-89435000D01*
X100885000Y-89435000D02*
X86915000Y-89435000D01*
%TO.C,SW3*%
X48815000Y-56415000D02*
X62785000Y-56415000D01*
X48815000Y-70385000D02*
X48815000Y-56415000D01*
X62785000Y-56415000D02*
X62785000Y-70385000D01*
X62785000Y-70385000D02*
X48815000Y-70385000D01*
%TO.C,SW2*%
X67865000Y-56415000D02*
X81835000Y-56415000D01*
X67865000Y-70385000D02*
X67865000Y-56415000D01*
X81835000Y-56415000D02*
X81835000Y-70385000D01*
X81835000Y-70385000D02*
X67865000Y-70385000D01*
D14*
%TO.C,U1*%
X65990000Y-49029000D02*
X65990000Y-31884000D01*
X67895000Y-50934000D02*
X81865000Y-50934000D01*
X70385000Y-29979000D02*
X70388728Y-29068728D01*
X70888728Y-28569000D02*
X78884000Y-28569000D01*
X79384000Y-29069000D02*
X79384000Y-29979000D01*
D10*
X81865000Y-29979000D02*
X67895000Y-29979000D01*
D14*
X81865000Y-29979000D02*
X67895000Y-29979000D01*
X83770000Y-49029000D02*
X83770000Y-31884000D01*
X65990000Y-31884000D02*
G75*
G02*
X67895000Y-29979000I1905001J-1D01*
G01*
X67895000Y-50934000D02*
G75*
G02*
X65990000Y-49029000I1J1905001D01*
G01*
X70388728Y-29068728D02*
G75*
G02*
X70888728Y-28569001I500018J-291D01*
G01*
X78884000Y-28569000D02*
G75*
G02*
X79384000Y-29069000I0J-500000D01*
G01*
X81865000Y-29979000D02*
G75*
G02*
X83770000Y-31884000I0J-1905000D01*
G01*
X83770000Y-49029000D02*
G75*
G02*
X81865000Y-50934000I-1905000J0D01*
G01*
D15*
X66182000Y-30220000D02*
G75*
G02*
X65678000Y-30220000I-252000J0D01*
G01*
X65678000Y-30220000D02*
G75*
G02*
X66182000Y-30220000I252000J0D01*
G01*
X67325000Y-31100000D02*
G75*
G02*
X66821000Y-31100000I-252000J0D01*
G01*
X66821000Y-31100000D02*
G75*
G02*
X67325000Y-31100000I252000J0D01*
G01*
%TD*%
M02*
