%TF.GenerationSoftware,KiCad,Pcbnew,9.0.2*%
%TF.CreationDate,2025-07-03T17:25:18-07:00*%
%TF.ProjectId,new_proj,6e65775f-7072-46f6-9a2e-6b696361645f,rev?*%
%TF.SameCoordinates,Original*%
%TF.FileFunction,Copper,L2,Bot*%
%TF.FilePolarity,Positive*%
%FSLAX46Y46*%
G04 Gerber Fmt 4.6, Leading zero omitted, Abs format (unit mm)*
G04 Created by KiCad (PCBNEW 9.0.2) date 2025-07-03 17:25:18*
%MOMM*%
%LPD*%
G01*
G04 APERTURE LIST*
%TA.AperFunction,ComponentPad*%
%ADD10C,2.200000*%
%TD*%
%TA.AperFunction,ComponentPad*%
%ADD11C,1.524000*%
%TD*%
%TA.AperFunction,Conductor*%
%ADD12C,0.200000*%
%TD*%
G04 APERTURE END LIST*
D10*
%TO.P,SW1,1,1*%
%TO.N,GND*%
X96440000Y-58320000D03*
%TO.P,SW1,2,2*%
%TO.N,Net-(U1-GPIO1{slash}RX)*%
X90090000Y-60860000D03*
%TD*%
%TO.P,SW5,1,1*%
%TO.N,GND*%
X58340000Y-77370000D03*
%TO.P,SW5,2,2*%
%TO.N,Net-(U1-GPIO29{slash}ADC3{slash}A3)*%
X51990000Y-79910000D03*
%TD*%
%TO.P,SW4,1,1*%
%TO.N,GND*%
X96440000Y-77370000D03*
%TO.P,SW4,2,2*%
%TO.N,Net-(U1-GPIO3{slash}MOSI)*%
X90090000Y-79910000D03*
%TD*%
%TO.P,SW3,1,1*%
%TO.N,GND*%
X58340000Y-58320000D03*
%TO.P,SW3,2,2*%
%TO.N,Net-(U1-GPIO4{slash}MISO)*%
X51990000Y-60860000D03*
%TD*%
%TO.P,SW2,1,1*%
%TO.N,GND*%
X77390000Y-58320000D03*
%TO.P,SW2,2,2*%
%TO.N,Net-(U1-GPIO2{slash}SCK)*%
X71040000Y-60860000D03*
%TD*%
D11*
%TO.P,U1,1,GPIO26/ADC0/A0*%
%TO.N,unconnected-(U1-GPIO26{slash}ADC0{slash}A0-Pad1)*%
X67260000Y-32900000D03*
%TO.P,U1,2,GPIO27/ADC1/A1*%
%TO.N,unconnected-(U1-GPIO27{slash}ADC1{slash}A1-Pad2)*%
X67260000Y-35440000D03*
%TO.P,U1,3,GPIO28/ADC2/A2*%
%TO.N,unconnected-(U1-GPIO28{slash}ADC2{slash}A2-Pad3)*%
X67260000Y-37980000D03*
%TO.P,U1,4,GPIO29/ADC3/A3*%
%TO.N,Net-(U1-GPIO29{slash}ADC3{slash}A3)*%
X67260000Y-40520000D03*
%TO.P,U1,5,GPIO6/SDA*%
%TO.N,Net-(D2-DIN)*%
X67260000Y-43060000D03*
%TO.P,U1,6,GPIO7/SCL*%
%TO.N,unconnected-(U1-GPIO7{slash}SCL-Pad6)*%
X67260000Y-45600000D03*
%TO.P,U1,7,GPIO0/TX*%
%TO.N,unconnected-(U1-GPIO0{slash}TX-Pad7)*%
X67260000Y-48140000D03*
%TO.P,U1,8,GPIO1/RX*%
%TO.N,Net-(U1-GPIO1{slash}RX)*%
X82500000Y-48140000D03*
%TO.P,U1,9,GPIO2/SCK*%
%TO.N,Net-(U1-GPIO2{slash}SCK)*%
X82500000Y-45600000D03*
%TO.P,U1,10,GPIO4/MISO*%
%TO.N,Net-(U1-GPIO4{slash}MISO)*%
X82500000Y-43060000D03*
%TO.P,U1,11,GPIO3/MOSI*%
%TO.N,Net-(U1-GPIO3{slash}MOSI)*%
X82500000Y-40520000D03*
%TO.P,U1,12,3V3*%
%TO.N,unconnected-(U1-3V3-Pad12)*%
X82500000Y-37980000D03*
%TO.P,U1,13,GND*%
%TO.N,GND*%
X82500000Y-35440000D03*
%TO.P,U1,14,VBUS*%
%TO.N,+5V*%
X82500000Y-32900000D03*
%TD*%
D12*
%TO.N,Net-(U1-GPIO1{slash}RX)*%
X82500000Y-48140000D02*
X82500000Y-53270000D01*
X82500000Y-53270000D02*
X90090000Y-60860000D01*
%TO.N,Net-(U1-GPIO2{slash}SCK)*%
X82500000Y-45600000D02*
X71040000Y-57060000D01*
X71040000Y-57060000D02*
X71040000Y-60860000D01*
%TO.N,Net-(U1-GPIO4{slash}MISO)*%
X70610000Y-54950000D02*
X52150000Y-54950000D01*
X52150000Y-54950000D02*
X51990000Y-55110000D01*
X51990000Y-55110000D02*
X51990000Y-60860000D01*
X82500000Y-43060000D02*
X70610000Y-54950000D01*
%TO.N,Net-(U1-GPIO3{slash}MOSI)*%
X90090000Y-79910000D02*
X91491000Y-78509000D01*
X91491000Y-49511000D02*
X82500000Y-40520000D01*
X91491000Y-78509000D02*
X91491000Y-49511000D01*
%TO.N,Net-(U1-GPIO29{slash}ADC3{slash}A3)*%
X67260000Y-40520000D02*
X66012900Y-40520000D01*
X66012900Y-40520000D02*
X49519000Y-57013900D01*
X49519000Y-57013900D02*
X49519000Y-77439000D01*
X49519000Y-77439000D02*
X51990000Y-79910000D01*
%TD*%
M02*
